<?xml version="1.0" encoding="UTF-8" standalone="no"?>
<svg
   xmlns:dc="http://purl.org/dc/elements/1.1/"
   xmlns:cc="http://creativecommons.org/ns#"
   xmlns:rdf="http://www.w3.org/1999/02/22-rdf-syntax-ns#"
   xmlns:svg="http://www.w3.org/2000/svg"
   xmlns="http://www.w3.org/2000/svg"
   xmlns:sodipodi="http://sodipodi.sourceforge.net/DTD/sodipodi-0.dtd"
   xmlns:inkscape="http://www.inkscape.org/namespaces/inkscape"
   height="149.74051pt"
   viewBox="0 -1 150.0568 149.74051"
   width="150.00049pt"
   version="1.1"
   id="svg14"
   sodipodi:docname="spicypass.svg"
   inkscape:version="0.92.3 (2405546, 2018-03-11)">
  <metadata
     id="metadata20">
    <rdf:RDF>
      <cc:Work
         rdf:about="">
        <dc:format>image/svg+xml</dc:format>
        <dc:type
           rdf:resource="http://purl.org/dc/dcmitype/StillImage" />
        <dc:title></dc:title>
      </cc:Work>
    </rdf:RDF>
  </metadata>
  <defs
     id="defs18" />
  <sodipodi:namedview
     pagecolor="#ffffff"
     bordercolor="#666666"
     borderopacity="1"
     objecttolerance="10"
     gridtolerance="10"
     guidetolerance="10"
     inkscape:pageopacity="0"
     inkscape:pageshadow="2"
     inkscape:window-width="1920"
     inkscape:window-height="1023"
     id="namedview16"
     showgrid="false"
     fit-margin-top="0"
     fit-margin-left="0"
     fit-margin-right="0"
     fit-margin-bottom="0"
     inkscape:zoom="0.49665833"
     inkscape:cx="448.4188"
     inkscape:cy="222.36049"
     inkscape:window-x="0"
     inkscape:window-y="0"
     inkscape:window-maximized="1"
     inkscape:current-layer="svg14" />
  <path
     d="m 140.37203,138.47859 c -5.6978,2.81693 -11.64091,5.10604 -17.75723,6.83829 -6.1233,1.73573 -12.41169,2.82041 -18.76286,3.23429 -3.25289,0.19299 -6.512761,0.20113 -9.766818,0.0233 -3.252896,-0.17787 -6.494165,-0.53943 -9.707532,-1.08236 C 72.856435,145.45755 61.77241,141.4513 51.612635,135.64771 41.447047,129.8569 32.00342,122.8826 23.477068,114.87243 19.287134,111.03941 15.398308,106.88784 11.847793,102.45609 8.2914646,98.023178 5.2606219,93.193818 2.8145564,88.063358 0.2324692,82.581808 -0.59993714,76.437578 0.42894492,70.465408 1.4194619,64.785048 3.8015859,59.438348 7.3602392,54.901968 c 1.0370201,-1.33232 2.1647213,-2.59023 3.3772918,-3.76443 1.188155,-1.15212 2.460016,-2.21704 3.802795,-3.18314 -2.901797,-5.49202 -4.9851383,-11.37816 -6.1849195,-17.4724 -0.6301178,-3.57841 -0.5998906,-7.2417 0.089518,-10.80849 0.8486823,-4.20156 2.6158025,-8.16247 5.1758005,-11.6002104 2.830879,-3.53889 6.419759,-6.39767 10.501573,-8.36474999 0.598728,-0.29995 1.233496,-0.522 1.88919,-0.65919 0.652207,-0.13834001 1.321852,-0.17671001 1.985685,-0.11625001 1.572969,0.0942 3.104085,0.54873001 4.473602,1.32766001 1.08585,0.68127 1.804322,1.81710999 1.95662,3.08896999 0.190663,1.26256 -0.07324,2.5507 -0.745212,3.63539 -0.669646,1.09863 -1.650862,1.97289 -2.819254,2.51233 -1.538091,0.7161504 -3.006428,1.5764604 -4.384084,2.5693004 -1.311389,0.9475 -2.510007,2.04381 -3.570279,3.26684 -1.147465,1.69388 -1.903141,3.62144 -2.211225,5.64316 -0.312733,2.02172 -0.359236,4.07484 -0.139509,6.10819 0.12207,1.31139 0.313896,2.61348 0.575476,3.90394 0.258093,1.29395 0.574314,2.5786 0.923088,3.84465 0.19415,0.72312 0.399927,1.44043 0.616167,2.15658 0.216239,0.71731 0.442942,1.43346 0.675458,2.15658 0.06394,0.15463 0.341798,1.09748 0.63593,2.00196 0.13951,0.6278 0.388301,1.22536 0.732425,1.76945 3.068045,-1.41719 6.329078,-2.37166 9.676142,-2.83204 3.348227,-0.44527 6.752257,-0.20229 10.00399,0.71382 0.491771,0.14183 1.00098,0.28367 1.520653,0.43597 0.520835,0.15113 1.049808,0.31273 1.578782,0.49409 0.504559,0.15463 1.007955,0.32901 1.4881,0.52549 0.467357,0.18717 0.9196,0.40923 1.353242,0.66267 10.845696,6.67901 19.694083,16.15635 25.613933,27.43453 6.652276,12.06873 11.188657,25.1861 13.411508,38.785952 5.682686,2.0659 11.134014,4.71774 16.267964,7.91367 4.45267,2.69835 8.14967,6.48022 10.74687,10.99218 4.56661,-0.45689 9.15764,-0.61732 13.74401,-0.4813 3.75629,0.0477 7.47305,0.77079 10.97358,2.13449 2.19495,1.27884 3.57609,2.62162 3.62841,4.07135 0.0512,1.44857 -1.22652,3.00527 -4.35153,4.70961 z m 0,0"
     id="path2"
     inkscape:connector-curvature="0"
     style="fill:#c03a2b;stroke-width:0.29762015" />
  <path
     d="m 47.488968,122.72797 c -0.537112,0 -1.061434,-0.16857 -1.498564,-0.48014 -4.740996,-3.38776 -9.289004,-7.03825 -13.623097,-10.93289 -3.815583,-3.43077 -6.892929,-6.54416 -9.19716,-9.0251 -0.645231,-0.67313 -0.877747,-1.6404 -0.608029,-2.533262 0.269719,-0.8917 0.998655,-1.56948 1.908955,-1.77293 0.909136,-0.20462 1.8578,0.0988 2.482105,0.79055 2.224013,2.392592 5.194402,5.397852 8.878613,8.708882 4.186446,3.7621 8.579831,7.2882 13.160391,10.5597 0.91495,0.65221 1.302088,1.82176 0.959128,2.89133 -0.342961,1.06958 -1.339291,1.79502 -2.462342,1.79386 z m 0,0"
     id="path4"
     inkscape:connector-curvature="0"
     style="fill:#802f34;stroke-width:0.29762015" />
  <path
     d="m 79.76099,138.01588 c -0.104632,0 -0.209264,-0.006 -0.312734,-0.0186 -0.105795,-0.0128 -0.211589,-0.0314 -0.313896,-0.0581 -3.13315,-0.78358 -6.219796,-1.74154 -9.245988,-2.86808 -3.13315,-1.16607 -6.20352,-2.49257 -9.200648,-3.97602 -0.839382,-0.40109 -1.398582,-1.22303 -1.462524,-2.15193 -0.06394,-0.92774 0.375513,-1.81944 1.152115,-2.3333 0.776603,-0.51269 1.769445,-0.5685 2.598364,-0.14532 2.830879,1.40091 5.731513,2.65533 8.691438,3.75629 2.852968,1.06376 5.762902,1.96708 8.715852,2.70648 1.263723,0.31739 2.093805,1.52531 1.935694,2.81926 -0.158111,1.29279 -1.254423,2.26586 -2.557673,2.26935 z m 0,0"
     id="path6"
     inkscape:connector-curvature="0"
     style="fill:#802f34;stroke-width:0.29762015" />
  <path
     d="m 150.05631,20.189688 c -4.68055,4.25853 -8.49497,9.38085 -11.234,15.08563 -2.62162,5.6385 -4.04578,11.75715 -4.18412,17.97346 -0.11626,5.03629 -0.0198,10.26557 -0.28832,15.45067 -0.15811,5.14674 -0.99052,10.25046 -2.47513,15.17979 -2.13217,6.14539 -6.34071,11.35375 -11.90016,14.72871 -5.49899,3.488902 -11.79203,5.530392 -18.29201,5.933802 -1.19397,-0.80566 -2.241448,-1.80897 -3.097106,-2.9669 -0.966103,-1.07655 -1.745031,-2.308882 -2.300743,-3.644682 l 0.7487,-0.0523 0.748701,-0.0512 c 3.213368,-1.044 6.041918,-3.02387 8.122938,-5.68501 2.51117,-3.56912 4.3213,-7.58234 5.33274,-11.82575 -2.46931,0.93122 -5.00606,1.90663 -7.59047,2.69021 -2.55768,0.81613 -5.201376,1.33464 -7.878794,1.5439 -0.566176,0.0349 -1.134677,0.0453 -1.700853,0.0267 -0.567338,-0.0186 -1.133514,-0.0663 -1.69504,-0.14532 -0.04418,-0.005 -0.08719,-0.0139 -0.129046,-0.0256 -0.07789,-0.0186 -0.14416,-0.0709 -0.181362,-0.143 -0.01744,-0.0326 -0.03255,-0.0663 -0.0465,-0.1 -0.151136,-0.36737 -0.268556,-0.74521 -0.384814,-1.12421 -0.115095,-0.379 -0.227865,-0.758 -0.3697,-1.1277 -0.162761,-0.42899 -0.32901,-0.85799 -0.497584,-1.28465 -0.169736,-0.42667 -0.340635,-0.85334 -0.513859,-1.27768 -0.341798,-0.83822 -0.695222,-1.67062 -1.057947,-2.49838 -0.362724,-0.82892 -0.732425,-1.65435 -1.1091,-2.47629 -0.01976,-0.0442 -0.04069,-0.0895 -0.05813,-0.13486 -0.01744,-0.0453 -0.03023,-0.093 -0.0372,-0.14067 0.0035,-0.30576 0.101144,-0.60338 0.279018,-0.85101 0.166249,-0.26972 0.347612,-0.52897 0.541762,-0.77776 0.188338,-0.25112 0.392952,-0.48713 0.615004,-0.70801 0.222053,-0.21973 0.460381,-0.42318 0.712661,-0.60803 0.741725,-0.5313 1.584595,-0.901 2.477455,-1.08934 0.891698,-0.19183 1.811298,-0.22787 2.715784,-0.10579 11.182835,1.49856 18.562885,0.16159 23.092295,-3.318 4.5294,-3.48076 6.20817,-9.10416 5.98844,-16.18194 h -0.003 c -1.27767,1.36371 -2.65533,2.62859 -4.1225,3.78536 -1.46601,1.16142 -3.1192,2.06474 -4.88748,2.67161 -1.77642,0.56152 -3.66445,0.66499 -5.49202,0.30343 -1.81944,-0.37319 -3.60981,-0.88124 -5.35484,-1.51717 -1.53693,-0.50339 -3.08084,-0.97424 -4.63287,-1.3916 -1.553205,-0.41621 -3.115711,-0.77777 -4.691005,-1.06144 -2.022887,-0.34296 -4.072513,-0.50107 -6.124464,-0.47549 -2.043813,0.0105 -4.091115,0.1523 -6.144229,0.31971 -0.761489,0.0523 -1.542741,0.0721 -2.327482,0.0651 -0.784741,-0.007 -1.571807,-0.0384 -2.347246,-0.0907 -0.553388,-0.043 -1.103288,-0.12091 -1.646212,-0.23252 -0.547574,-0.10579 -1.091661,-0.22902 -1.633423,-0.33249 -0.04999,-0.009 -0.09998,-0.0186 -0.14881,-0.0326 -0.04999,-0.0116 -0.09766,-0.0291 -0.14416,-0.0512 -0.177874,-0.11044 -0.329009,-0.26042 -0.438292,-0.43945 -0.130209,-0.18485 -0.248792,-0.38365 -0.361562,-0.52549 -0.166249,-0.20694 -0.33366,-0.41271 -0.503396,-0.61617 -0.169737,-0.20461 -0.339473,-0.4069 -0.511535,-0.60919 -0.506884,-0.59407 -1.026557,-1.17769 -1.559018,-1.74968 -0.531298,-0.57199 -1.074223,-1.13468 -1.626448,-1.6869 -0.154623,-0.18136 -0.323196,-0.36156 -0.501071,-0.54641 -0.177875,-0.18369 -0.363887,-0.37086 -0.558038,-0.56385 0.10347,-1.9822 0.855658,-3.87371 2.140308,-5.38507 1.340453,-1.89849 3.115711,-3.88766 4.756109,-5.92799 -2.462342,-0.77311 -5.092095,-0.83589 -7.588151,-0.1802 -2.108918,0.58129 -4.038799,1.68109 -5.61293,3.19942 -0.43713,0.42434 -1.004468,0.68709 -1.610172,0.74754 -0.604541,0.057 -1.210244,-0.1 -1.711315,-0.44178 -0.682434,-0.46271 -1.375331,-0.91262 -2.078691,-1.34975 -0.70336,-0.4383 -1.417183,-0.8638 -2.140307,-1.27768 -0.409228,-0.23833 -0.824269,-0.45573 -1.239309,-0.65569 -0.415041,-0.20113 -0.834732,-0.38598 -1.250935,-0.55572 -0.642906,-0.26158 -1.159091,-0.76381 -1.434622,-1.4009 -0.276694,-0.63593 -0.28832,-1.35557 -0.03372,-2.0008 3.647009,-9.10415 11.575796,-15.80526 21.161257,-17.88279 10.279521,-2.6297504 23.450375,-1.5625 38.506929,4.28759 -11.96642,8.09388 -11.974558,16.56675 -7.23705,20.6381 4.73867,4.07251 14.22182,3.74583 21.23566,-5.76174 2.95411,-4.58288 7.36261,-8.04156 12.51748,-9.81798 4.27713,-0.98703 8.63913,-1.56483 13.02554,-1.72643 z m 0,0"
     id="path8"
     inkscape:connector-curvature="0"
     style="fill:#f29c1f;stroke-width:0.29762015" />
  <path
     d="m 46.958832,65.881358 c -4.952585,-0.30808 -9.68428,-2.15891 -13.531253,-5.29438 -2.719272,-2.23797 -4.172495,-4.32828 -5.947753,-4.42013 -4.028335,8.12294 -9.109966,16.2203 -13.159228,18.07927 -4.048099,1.86012 -7.0638286,-2.51815 -6.9603588,-19.34415 v -0.0267 c 1.042833,-1.32534 2.174022,-2.5786 3.3865918,-3.75048 1.186993,-1.14746 2.454204,-2.20657 3.793495,-3.17035 -2.901797,-5.49202 -4.9851383,-11.37816 -6.1849195,-17.4724 -0.6301178,-3.57841 -0.5998906,-7.2417 0.089518,-10.80849 0.8486823,-4.20156 2.6158015,-8.16247 5.1758005,-11.6002104 2.830879,-3.53889 6.419759,-6.39767 10.501573,-8.36474999 0.598728,-0.29995 1.233496,-0.522 1.88919,-0.65919 0.652207,-0.13834001 1.321852,-0.17671001 1.985685,-0.11625001 1.572969,0.0942 3.104085,0.54873001 4.473602,1.32766001 1.08585,0.68127 1.804322,1.81710999 1.95662,3.08896999 0.190663,1.26256 -0.07324,2.5507 -0.745212,3.63539 -0.669646,1.09863 -1.650862,1.97289 -2.819254,2.51233 -1.538091,0.7161504 -3.006428,1.5764604 -4.384084,2.5693004 -1.311389,0.9475 -2.510007,2.04381 -3.570279,3.26684 -1.147465,1.69388 -1.903141,3.62144 -2.211225,5.64316 -0.312733,2.02172 -0.359236,4.07484 -0.139509,6.10819 0.12207,1.31139 0.313896,2.61348 0.575476,3.90394 0.258093,1.29395 0.574314,2.5786 0.923088,3.84465 0.19415,0.72312 0.399927,1.44043 0.616167,2.15658 0.216239,0.71731 0.442942,1.43346 0.675458,2.15658 0.06394,0.15463 0.341798,1.09748 0.63593,2.00196 0.13951,0.6278 0.388301,1.22536 0.732425,1.76945 3.068045,-1.41719 6.329078,-2.37166 9.676142,-2.83204 3.348227,-0.44527 6.752257,-0.20229 10.00399,0.71382 0.491771,0.14183 0.995167,0.28367 1.507864,0.43597 0.51386,0.15113 1.03702,0.31273 1.565994,0.49409 -1.95197,2.81809 -2.837855,6.2384 -2.50187,9.64941 0.532461,3.81093 2.049627,7.41841 4.400361,10.46437 0.59524,0.81845 0.63593,1.91593 0.103469,2.7774 -0.519672,0.87542 -1.502051,1.36719 -2.513495,1.26023 z m 0,0"
     id="path10"
     inkscape:connector-curvature="0"
     style="fill:#24ae5f;stroke-width:0.29762015" />
  <path
     d="m 141.48229,129.93015 c -5.78616,2.45653 -12.00014,3.74583 -18.2862,3.79349 -12.82673,0.1523 -25.594168,-1.76479 -37.810545,-5.6792 C 66.737783,122.55591 53.21118,108.2155 43.822195,93.533298 36.676986,82.124908 31.052431,69.832968 27.092688,56.967868 c 0.0651,-0.14183 0.129046,-0.27785 0.19415,-0.41039 0.06394,-0.13253 0.129047,-0.26158 0.192988,-0.39063 1.73108,0.0907 3.157564,2.08567 5.753602,4.25853 3.616782,3.02736 8.068296,4.88399 12.765114,5.32345 0.154623,0.0256 0.309246,0.0523 0.467357,0.0744 0.15811,0.0221 0.319709,0.0419 0.488283,0.0546 1.012606,0.11626 1.999635,-0.37202 2.52047,-1.24977 0.531299,-0.86031 0.494096,-1.95546 -0.09301,-2.77856 -2.356547,-3.04596 -3.878362,-6.65344 -4.413149,-10.4667 -0.335985,-3.41333 0.5499,-6.83363 2.50187,-9.65289 h 0.02558 c 0.504559,0.15463 1.007955,0.32901 1.4881,0.52549 0.467357,0.18717 0.9196,0.40923 1.353242,0.66267 8.206643,4.89794 15.235593,11.54208 20.588106,19.4604 5.886136,8.54031 10.503898,17.88744 13.71029,27.75192 1.033532,3.11222 1.950807,6.26862 2.741361,9.44595 0.791716,3.177332 1.455548,6.373262 1.985684,9.562212 5.682685,2.0659 11.134014,4.71774 16.267964,7.91367 4.45267,2.69835 8.14967,6.48022 10.74687,10.99218 4.56661,-0.45689 9.15764,-0.61732 13.74401,-0.4813 3.75629,0.0477 7.47305,0.77079 10.97358,2.13449 l 0.19299,0.11626 z m 0,0"
     id="path12"
     inkscape:connector-curvature="0"
     style="fill:#e64c3c;stroke-width:0.29762015" />
</svg>
